:FULLY-SPECIFIED
:FORCE-ALL-JOINTS-BE-3DOF
:DEGREES
421
root 10.0707 16.9147 23.0609 7.30101 -1.73933 -6.3621
lfemur -39.9017 1.38179 -15.1669
ltibia 23.2562 -0 0
lfoot -8.00941 9.01387 0.0443164
ltoes -12.0341 0 0
rfemur 15.5556 4.46998 29.6028
rtibia 11.5397 -0 0
rfoot -4.14441 4.4183 0.00971192
rtoes -16.6876 0 0
lowerback -8.47859 2.89556 2.83069
upperback -0.873172 3.4459 3.23889
thorax 3.84459 1.73773 2.23284
lowerneck -19.5186 -5.85276 -13.0989
upperneck 22.0879 -7.4872 12.6911
head 11.436 -3.01465 5.72287
lclavicle -4.37388e-14 2.78299e-15 0
lhumerus -49.6508 -8.77925 94.5866
lradius 24.8754 -0 0
lwrist 3.30315 0 0
lhand -6.6985 -21.279 0.00727709
lfingers 7.12502 -0 0
lthumb 19.1609 7.7997 0.00734962
rclavicle -4.37388e-14 2.78299e-15 0
rhumerus -33.0083 13.024 -87.3858
rradius 36.7404 -0 0
rwrist -15.0648 0 0
rhand -29.4268 -25.7598 0.0141411
rfingers 7.12502 -0 0
rthumb -2.76389 -55.7214 0.0136494
422
root 10.0938 16.9324 23.2053 7.24254 -1.71361 -6.12196
lfemur -39.4278 1.39682 -15.5785
ltibia 23.3293 -0 0
lfoot -8.11588 8.87405 0.0483093
ltoes -11.7124 0 0
rfemur 14.6533 4.26796 29.1701
rtibia 13.3218 -0 0
rfoot -4.13349 4.0358 0.0134441
rtoes -16.8606 0 0
lowerback -8.3983 2.79675 2.68078
upperback -0.902238 3.33457 3.182
thorax 3.76972 1.6813 2.246
lowerneck -19.5569 -5.8027 -13.0702
upperneck 22.1553 -7.40785 12.6233
head 11.4527 -2.98318 5.70796
lclavicle -4.37388e-14 2.78299e-15 0
lhumerus -48.9773 -8.80386 94.4444
lradius 24.6619 -0 0
lwrist 2.96868 0 0
lhand -6.79179 -21.329 0.00820092
lfingers 7.12502 -0 0
lthumb 19.0712 7.75799 0.00806548
rclavicle -4.37388e-14 2.78299e-15 0
rhumerus -33.3662 12.9494 -87.444
rradius 36.6286 -0 0
rwrist -14.9322 0 0
rhand -29.4583 -25.9928 0.0155663
rfingers 7.12502 -0 0
rthumb -2.79426 -55.954 0.0150232
423
root 10.1169 16.9501 23.3496 7.18107 -1.68183 -5.8702
lfemur -38.931 1.41907 -16.0074
ltibia 23.4314 -0 0
lfoot -8.23134 8.73084 0.0520284
ltoes -11.3705 0 0
rfemur 13.6966 4.0528 28.7251
rtibia 15.1836 -0 0
rfoot -4.13378 3.63753 0.0175426
rtoes -17.0406 0 0
lowerback -8.31267 2.69217 2.52303
upperback -0.93225 3.21632 3.12262
thorax 3.69092 1.6214 2.26011
lowerneck -19.5971 -5.75106 -13.04
upperneck 22.2249 -7.32592 12.5531
head 11.47 -2.95069 5.69234
lclavicle -4.37388e-14 2.78299e-15 0
lhumerus -48.2757 -8.83521 94.2992
lradius 24.4434 -0 0
lwrist 2.62859 0 0
lhand -6.89419 -21.3814 0.00910039
lfingers 7.12502 -0 0
lthumb 18.9726 7.71457 0.0087395
rclavicle -4.37388e-14 2.78299e-15 0
rhumerus -33.7384 12.8749 -87.5015
rradius 36.5178 -0 0
rwrist -14.8002 0 0
rhand -29.4919 -26.2333 0.016881
rfingers 7.12502 -0 0
rthumb -2.82679 -56.194 0.0162901
424
root 10.1401 16.9677 23.4939 7.11691 -1.64424 -5.6078
lfemur -38.4126 1.44855 -16.4518
ltibia 23.5595 -0 0
lfoot -8.35518 8.58463 0.0554316
ltoes -11.0099 0 0
rfemur 12.6901 3.82493 28.2696
rtibia 17.1165 -0 0
rfoot -4.14523 3.22498 0.021936
rtoes -17.2263 0 0
lowerback -8.22213 2.58225 2.35804
upperback -0.96304 3.09156 3.06101
thorax 3.60861 1.55823 2.27514
lowerneck -19.6391 -5.69793 -13.0084
upperneck 22.2963 -7.24162 12.4808
head 11.4879 -2.91726 5.67607
lclavicle -4.37388e-14 2.78299e-15 0
lhumerus -47.5483 -8.873 94.1513
lradius 24.2211 -0 0
lwrist 2.28401 0 0
lhand -7.00509 -21.4361 0.00996019
lfingers 7.12502 -0 0
lthumb 18.8659 7.66954 0.00936225
rclavicle -4.37388e-14 2.78299e-15 0
rhumerus -34.1235 12.8007 -87.5582
rradius 36.4081 -0 0
rwrist -14.669 0 0
rhand -29.5276 -26.4803 0.0180616
rfingers 7.12502 -0 0
rthumb -2.86126 -56.4405 0.0174277
425
root 10.1632 16.9854 23.6383 7.05033 -1.60109 -5.33572
lfemur -37.8736 1.48522 -16.9101
ltibia 23.711 -0 0
lfoot -8.48676 8.43581 0.0584801
ltoes -10.6325 0 0
rfemur 11.6381 3.58488 27.8059
rtibia 19.1119 -0 0
rfoot -4.16777 2.79966 0.026546
rtoes -17.4163 0 0
lowerback -8.12709 2.46741 2.18638
upperback -0.994443 2.96072 2.99741
thorax 3.52322 1.49202 2.29104
lowerneck -19.6827 -5.64343 -12.9755
upperneck 22.3694 -7.15516 12.4066
head 11.5064 -2.88295 5.65924
lclavicle -4.37388e-14 2.78299e-15 0
lhumerus -46.7973 -8.91694 94.0008
lradius 23.996 -0 0
lwrist 1.93607 0 0
lhand -7.1239 -21.493 0.0107656
lfingers 7.12502 -0 0
lthumb 18.7516 7.62296 0.00992477
rclavicle -4.37388e-14 2.78299e-15 0
rhumerus -34.5205 12.7266 -87.6141
rradius 36.2997 -0 0
rwrist -14.539 0 0
rhand -29.5651 -26.7326 0.0190872
rfingers 7.12502 -0 0
rthumb -2.89745 -56.6923 0.0184156
426
root 10.1864 17.0031 23.7826 6.98163 -1.55262 -5.05495
lfemur -37.315 1.52901 -17.3805
ltibia 23.883 -0 0
lfoot -8.62548 8.28476 0.061139
ltoes -10.2397 0 0
rfemur 10.5449 3.3333 27.3357
rtibia 21.161 -0 0
rfoot -4.20133 2.36305 0.0312887
rtoes -17.6094 0 0
lowerback -8.02796 2.34806 2.00863
upperback -1.02629 2.82422 2.93204
thorax 3.43516 1.42297 2.30779
lowerneck -19.7278 -5.58767 -12.9414
upperneck 22.4441 -7.06673 12.3309
head 11.5253 -2.84785 5.6419
lclavicle -4.37388e-14 2.78299e-15 0
lhumerus -46.025 -8.96674 93.8479
lradius 23.769 -0 0
lwrist 1.58592 0 0
lhand -7.25001 -21.5519 0.0115026
lfingers 7.12502 -0 0
lthumb 18.6302 7.57491 0.0104188
rclavicle -4.37388e-14 2.78299e-15 0
rhumerus -34.9281 12.6525 -87.6689
rradius 36.1927 -0 0
rwrist -14.4105 0 0
rhand -29.6041 -26.9893 0.0199398
rfingers 7.12502 -0 0
rthumb -2.93513 -56.9484 0.0192366
427
root 10.2095 17.0207 23.9269 6.91111 -1.49909 -4.76644
lfemur -36.738 1.57984 -17.8611
ltibia 24.0727 -0 0
lfoot -8.77072 8.13187 0.0633775
ltoes -9.83321 0 0
rfemur 9.41471 3.07093 26.8611
rtibia 23.2553 -0 0
rfoot -4.24586 1.91666 0.036076
rtoes -17.8043 0 0
lowerback -7.92517 2.22462 1.82537
upperback -1.05843 2.68248 2.86515
thorax 3.34488 1.35132 2.32534
lowerneck -19.7743 -5.53077 -12.9061
upperneck 22.5199 -6.97656 12.2538
head 11.5447 -2.81201 5.62414
lclavicle -4.37388e-14 2.78299e-15 0
lhumerus -45.2338 -9.02215 93.6928
lradius 23.5414 -0 0
lwrist 1.23468 0 0
lhand -7.38283 -21.6127 0.0121584
lfingers 7.12502 -0 0
lthumb 18.5024 7.52549 0.0108366
rclavicle -4.37388e-14 2.78299e-15 0
rhumerus -35.345 12.5785 -87.7224
rradius 36.0873 -0 0
rwrist -14.2839 0 0
rhand -29.6445 -27.2493 0.0206042
rfingers 7.12502 -0 0
rthumb -2.97409 -57.2078 0.0198761
428
root 10.2327 17.0384 24.0713 6.83905 -1.44076 -4.47118
lfemur -36.1437 1.63754 -18.3504
ltibia 24.2774 -0 0
lfoot -8.92187 7.97754 0.0651696
ltoes -9.41471 0 0
rfemur 8.25184 2.79867 26.384
rtibia 25.3862 -0 0
rfoot -4.30127 1.46197 0.0408175
rtoes -17.9996 0 0
lowerback -7.81914 2.0975 1.63718
upperback -1.09068 2.53592 2.79697
thorax 3.25278 1.27727 2.34364
lowerneck -19.8221 -5.47284 -12.8698
upperneck 22.5969 -6.88484 12.1756
head 11.5645 -2.77553 5.60603
lclavicle -4.37388e-14 2.78299e-15 0
lhumerus -44.4259 -9.08293 93.5358
lradius 23.314 -0 0
lwrist 0.883483 0 0
lhand -7.52173 -21.6753 0.0127211
lfingers 7.12502 -0 0
lthumb 18.3687 7.47476 0.0111717
rclavicle -4.37388e-14 2.78299e-15 0
rhumerus -35.77 12.5044 -87.7746
rradius 35.9835 -0 0
rwrist -14.1593 0 0
rhand -29.6859 -27.5115 0.0210688
rfingers 7.12502 -0 0
rthumb -3.01409 -57.4694 0.0203229
429
root 10.2558 17.056 24.2156 6.76573 -1.37789 -4.17012
lfemur -35.533 1.70195 -18.8466
ltibia 24.4942 -0 0
lfoot -9.07829 7.82215 0.0664939
ltoes -8.98581 0 0
rfemur 7.06046 2.51752 25.906
rtibia 27.5451 -0 0
rfoot -4.36751 1.00049 0.0454217
rtoes -18.1939 0 0
lowerback -7.71031 1.96711 1.44466
upperback -1.1229 2.38498 2.72774
thorax 3.1593 1.20105 2.36267
lowerneck -19.871 -5.414 -12.8324
upperneck 22.6748 -6.79179 12.0966
head 11.5846 -2.73848 5.58764
lclavicle -4.37388e-14 2.78299e-15 0
lhumerus -43.6037 -9.14885 93.3771
lradius 23.088 -0 0
lwrist 0.533472 0 0
lhand -7.66614 -21.7395 0.0131803
lfingers 7.12502 -0 0
lthumb 18.2298 7.42281 0.0114181
rclavicle -4.37388e-14 2.78299e-15 0
rhumerus -36.2019 12.4302 -87.8254
rradius 35.8815 -0 0
rwrist -14.0373 0 0
rhand -29.7282 -27.7749 0.0213252
rfingers 7.12502 -0 0
rthumb -3.05492 -57.7323 0.0205691
430
root 10.279 17.0737 24.3599 6.69143 -1.31075 -3.86425
lfemur -34.9071 1.77282 -19.3479
ltibia 24.7204 -0 0
lfoot -9.23939 7.6661 0.0673343
ltoes -8.54815 0 0
rfemur 5.84472 2.22862 25.429
rtibia 29.7232 -0 0
rfoot -4.4445 0.533699 0.0497974
rtoes -18.3861 0 0
lowerback -7.5991 1.83383 1.24838
upperback -1.15492 2.23007 2.65769
thorax 3.06487 1.12286 2.38238
lowerneck -19.9209 -5.35435 -12.7941
upperneck 22.7533 -6.69762 12.0172
head 11.605 -2.70092 5.56904
lclavicle -4.37388e-14 2.78299e-15 0
lhumerus -42.7693 -9.21971 93.217
lradius 22.8644 -0 0
lwrist 0.185778 0 0
lhand -7.81544 -21.8053 0.0135273
lfingers 7.12502 -0 0
lthumb 18.0861 7.36972 0.0115714
rclavicle -4.37388e-14 2.78299e-15 0
rhumerus -36.6395 12.356 -87.8744
rradius 35.7814 -0 0
rwrist -13.918 0 0
rhand -29.7711 -28.0384 0.0213688
rfingers 7.12502 -0 0
rthumb -3.09636 -57.9952 0.02061
431
root 10.3021 17.0914 24.5043 6.61643 -1.23961 -3.55452
lfemur -34.267 1.84987 -19.8527
ltibia 24.9531 -0 0
lfoot -9.40454 7.50976 0.0676799
ltoes -8.10337 0 0
rfemur 4.60874 1.93323 24.9544
rtibia 31.912 -0 0
rfoot -4.53218 0.0631052 0.0538552
rtoes -18.5748 0 0
lowerback -7.48596 1.69808 1.04895
upperback -1.18659 2.07161 2.58705
thorax 2.96991 1.04292 2.40271
lowerneck -19.9717 -5.29401 -12.7549
upperneck 22.8323 -6.60253 11.9374
head 11.6257 -2.66294 5.55031
lclavicle -4.37388e-14 2.78299e-15 0
lhumerus -41.9251 -9.29533 93.0555
lradius 22.6443 -0 0
lwrist -0.158464 0 0
lhand -7.96902 -21.8724 0.0137546
lfingers 7.12502 -0 0
lthumb 17.9383 7.31557 0.011628
rclavicle -4.37388e-14 2.78299e-15 0
rhumerus -37.0815 12.2816 -87.9218
rradius 35.6834 -0 0
rwrist -13.8018 0 0
rhand -29.8144 -28.3011 0.0211986
rfingers 7.12502 -0 0
rthumb -3.13818 -58.2572 0.0204449
432
root 10.3253 17.109 24.6486 6.541 -1.16475 -3.24191
lfemur -33.6138 1.93278 -20.3591
ltibia 25.1896 -0 0
lfoot -9.57312 7.35354 0.0675255
ltoes -7.65312 0 0
rfemur 3.35657 1.63277 24.484
rtibia 34.1029 -0 0
rfoot -4.63048 -0.4098 0.0575093
rtoes -18.7587 0 0
lowerback -7.37132 1.56023 0.846948
upperback -1.21776 1.91005 2.51604
thorax 2.87483 0.961458 2.42363
lowerneck -20.0232 -5.2331 -12.715
upperneck 22.9117 -6.50675 11.8577
head 11.6466 -2.6246 5.53151
lclavicle -4.37388e-14 2.78299e-15 0
lhumerus -41.0735 -9.37554 92.8931
lradius 22.4286 -0 0
lwrist -0.49812 0 0
lhand -8.1263 -21.9408 0.0138569
lfingers 7.12502 -0 0
lthumb 17.7869 7.26044 0.0115857
rclavicle -4.37388e-14 2.78299e-15 0
rhumerus -37.5268 12.207 -87.9672
rradius 35.5875 -0 0
rwrist -13.6891 0 0
rhand -29.8578 -28.5618 0.0208173
rfingers 7.12502 -0 0
rthumb -3.18017 -58.5173 0.0200762
